<?xml version="1.0" encoding="UTF-8" standalone="no"?>
<!-- Created with Inkscape (http://www.inkscape.org/) -->

<svg
   width="64.835869mm"
   height="17.382877mm"
   viewBox="0 0 64.83587 17.382877"
   version="1.1"
   id="svg5"
   inkscape:version="1.1.2 (0a00cf5339, 2022-02-04)"
   sodipodi:docname="logo.svg"
   inkscape:export-filename="/home/jakob/nb/naboa.de/static/logo.svg"
   inkscape:export-xdpi="96"
   inkscape:export-ydpi="96"
   xmlns:inkscape="http://www.inkscape.org/namespaces/inkscape"
   xmlns:sodipodi="http://sodipodi.sourceforge.net/DTD/sodipodi-0.dtd"
   xmlns="http://www.w3.org/2000/svg"
   xmlns:svg="http://www.w3.org/2000/svg">
  <sodipodi:namedview
     id="namedview7"
     pagecolor="#ffffff"
     bordercolor="#666666"
     borderopacity="1.0"
     inkscape:pageshadow="2"
     inkscape:pageopacity="0.0"
     inkscape:pagecheckerboard="0"
     inkscape:document-units="mm"
     showgrid="false"
     units="mm"
     inkscape:zoom="2.5620932"
     inkscape:cx="38.445128"
     inkscape:cy="57.179809"
     inkscape:window-width="1920"
     inkscape:window-height="1170"
     inkscape:window-x="0"
     inkscape:window-y="0"
     inkscape:window-maximized="1"
     inkscape:current-layer="text12831"
     lock-margins="true"
     fit-margin-top="0"
     fit-margin-left="0"
     fit-margin-right="0"
     fit-margin-bottom="0" />
  <defs
     id="defs2" />
  <g
     inkscape:label="Layer 1"
     inkscape:groupmode="layer"
     id="layer1"
     transform="translate(-41.754452,-28.931921)">
    <text
       xml:space="preserve"
       style="font-style:normal;font-weight:normal;font-size:10.5833px;line-height:1.25;font-family:sans-serif;font-variation-settings:normal;opacity:1;vector-effect:none;fill:#baddff;fill-opacity:0.533333;stroke:none;stroke-width:0.194912px;stroke-linecap:butt;stroke-linejoin:miter;stroke-miterlimit:4;stroke-dasharray:none;stroke-dashoffset:0;stroke-opacity:1;-inkscape-stroke:none;stop-color:#000000;stop-opacity:1"
       x="57.726875"
       y="36.708862"
       id="text7941"><tspan
         sodipodi:role="line"
         id="tspan7939"
         style="font-variation-settings:normal;vector-effect:none;fill:#baddff;fill-opacity:0.533333;stroke:none;stroke-width:0.194912px;stroke-linecap:butt;stroke-linejoin:miter;stroke-miterlimit:4;stroke-dasharray:none;stroke-dashoffset:0;stroke-opacity:1;-inkscape-stroke:none;stop-color:#000000;stop-opacity:1"
         x="57.726875"
         y="36.708862" /></text>
    <g
       aria-label="na·boa"
       id="text12831"
       style="font-size:13.7547px;line-height:1.25;letter-spacing:-0.257903px;word-spacing:0px;fill:#444444;stroke-width:0.257903">
      <path
         d="m 71.383018,42.47266 h -1.513017 v -4.030127 q 0,-1.004093 -0.330113,-1.471753 -0.316358,-0.46766 -0.949074,-0.46766 -0.44015,0 -0.880301,0.220076 -0.426395,0.220075 -0.770263,0.605206 -0.343867,0.371377 -0.495169,0.866546 v 4.277712 h -1.513017 v -7.193708 h 1.37547 v 1.444244 q 0.275094,-0.481415 0.715244,-0.825282 0.453905,-0.357623 1.017848,-0.550188 0.563943,-0.192566 1.196659,-0.192566 0.646471,0 1.059112,0.23383 0.426396,0.23383 0.660225,0.646471 0.247585,0.398886 0.330113,0.935319 0.09628,0.522679 0.09628,1.114131 z"
         style="font-weight:600;font-family:Raleway;-inkscape-font-specification:'Raleway Semi-Bold'"
         id="path8856" />
      <path
         d="m 72.36304,40.368191 q 0,-0.687735 0.385131,-1.196659 0.398887,-0.522678 1.086622,-0.797772 0.687735,-0.288849 1.595545,-0.288849 0.481414,0 0.976583,0.06877 0.508924,0.06877 0.894056,0.220076 v -0.453906 q 0,-0.756508 -0.453905,-1.182904 -0.453905,-0.426395 -1.306697,-0.426395 -0.605206,0 -1.14164,0.220075 -0.536433,0.20632 -1.14164,0.591452 l -0.508924,-1.017848 q 0.715245,-0.481414 1.430489,-0.715244 0.728999,-0.23383 1.526772,-0.23383 1.444243,0 2.269525,0.770263 0.839037,0.756508 0.839037,2.159488 v 2.682166 q 0,0.26134 0.08253,0.371377 0.09628,0.110038 0.316358,0.123792 v 1.210414 q -0.20632,0.04126 -0.371377,0.05502 -0.165056,0.01376 -0.275094,0.01376 -0.481414,0 -0.728999,-0.23383 -0.247584,-0.23383 -0.288848,-0.550188 l -0.04127,-0.412641 q -0.467659,0.605206 -1.196658,0.935319 -0.729,0.330113 -1.471753,0.330113 -0.715245,0 -1.279187,-0.288849 -0.563943,-0.302603 -0.880301,-0.811527 -0.316358,-0.508924 -0.316358,-1.14164 z m 4.580315,0.44015 q 0.165056,-0.178811 0.261339,-0.357622 0.09628,-0.178811 0.09628,-0.316358 v -0.825282 q -0.385132,-0.151302 -0.811527,-0.220075 -0.426396,-0.08253 -0.839037,-0.08253 -0.825282,0 -1.347961,0.330113 -0.508924,0.330112 -0.508924,0.90781 0,0.316358 0.165057,0.605206 0.178811,0.288849 0.495169,0.46766 0.330113,0.178811 0.811527,0.178811 0.49517,0 0.949075,-0.192565 0.453905,-0.192566 0.728999,-0.49517 z"
         style="letter-spacing:0px"
         id="path8858" />
      <path
         d="m 80.379015,38.498967 q 0,-0.519289 0.282223,-0.722489 0.282222,-0.21449 0.688623,-0.21449 0.395111,0 0.677334,0.21449 0.282222,0.2032 0.282222,0.722489 0,0.496712 -0.282222,0.72249 -0.282223,0.214489 -0.677334,0.214489 -0.406401,0 -0.688623,-0.214489 -0.282223,-0.225778 -0.282223,-0.72249 z"
         style="font-weight:bold;font-size:11.2889px;font-family:'Noto Sans';-inkscape-font-specification:'Noto Sans Bold';letter-spacing:0px"
         id="path8860" />
      <path
         d="m 87.739518,42.610207 q -0.825282,0 -1.499262,-0.385132 -0.660226,-0.398886 -1.045357,-1.059111 V 42.47266 H 83.860693 V 32.431729 h 1.513017 v 4.208938 q 0.426396,-0.687735 1.059112,-1.086621 0.646471,-0.398886 1.513017,-0.398886 0.715244,0 1.306696,0.302603 0.591452,0.302604 1.004093,0.825282 0.426396,0.522679 0.646471,1.196659 0.23383,0.67398 0.23383,1.430489 0,0.756508 -0.261339,1.430489 -0.247585,0.67398 -0.715245,1.182904 -0.467659,0.508924 -1.086621,0.797772 -0.605207,0.288849 -1.334206,0.288849 z m -0.398886,-1.292942 q 0.495169,0 0.90781,-0.192566 0.412641,-0.20632 0.715245,-0.536433 0.302603,-0.330113 0.453905,-0.770263 0.165056,-0.44015 0.165056,-0.90781 0,-0.646471 -0.275094,-1.210414 -0.261339,-0.563942 -0.742754,-0.90781 -0.481414,-0.343867 -1.11413,-0.343867 -0.453906,0 -0.852792,0.220075 -0.398886,0.20632 -0.715244,0.563942 -0.302604,0.343868 -0.508924,0.770264 v 1.898148 q 0.08253,0.316358 0.288849,0.577698 0.20632,0.247584 0.481414,0.44015 0.275094,0.178811 0.591452,0.288849 0.316358,0.110037 0.605207,0.110037 z"
         style="font-weight:600;font-family:Raleway;-inkscape-font-specification:'Raleway Semi-Bold'"
         id="path8862" />
      <path
         d="m 95.473098,42.610207 q -0.852791,0 -1.526772,-0.288849 -0.67398,-0.302603 -1.169149,-0.825282 -0.481415,-0.522678 -0.742754,-1.182904 -0.261339,-0.67398 -0.261339,-1.430489 0,-0.756508 0.261339,-1.430488 0.261339,-0.673981 0.742754,-1.182905 0.495169,-0.522678 1.169149,-0.811527 0.687735,-0.302603 1.526772,-0.302603 0.839037,0 1.513017,0.302603 0.687735,0.288849 1.169149,0.811527 0.49517,0.508924 0.756509,1.182905 0.261339,0.67398 0.261339,1.430488 0,0.756509 -0.261339,1.430489 -0.261339,0.660226 -0.756509,1.182904 -0.481414,0.522679 -1.169149,0.825282 -0.67398,0.288849 -1.513017,0.288849 z m -2.145733,-3.713769 q 0,0.687735 0.288849,1.237923 0.288848,0.550188 0.770263,0.866546 0.481414,0.316358 1.086621,0.316358 0.591452,0 1.072867,-0.316358 0.495169,-0.330113 0.784017,-0.880301 0.288849,-0.563942 0.288849,-1.237923 0,-0.687735 -0.288849,-1.237923 -0.288848,-0.550188 -0.784017,-0.866546 -0.481415,-0.330112 -1.072867,-0.330112 -0.605207,0 -1.086621,0.330112 -0.481415,0.330113 -0.770263,0.880301 -0.288849,0.536433 -0.288849,1.237923 z"
         style="font-weight:600;font-family:Raleway;-inkscape-font-specification:'Raleway Semi-Bold'"
         id="path8864" />
      <path
         d="m 99.740482,40.368191 q 0,-0.687735 0.385128,-1.196659 0.39889,-0.522678 1.08662,-0.797772 0.68774,-0.288849 1.59555,-0.288849 0.48141,0 0.97658,0.06877 0.50893,0.06877 0.89406,0.220076 v -0.453906 q 0,-0.756508 -0.45391,-1.182904 -0.4539,-0.426395 -1.30669,-0.426395 -0.60521,0 -1.14164,0.220075 -0.53644,0.20632 -1.14164,0.591452 l -0.50893,-1.017848 q 0.71525,-0.481414 1.43049,-0.715244 0.729,-0.23383 1.52677,-0.23383 1.44425,0 2.26953,0.770263 0.83904,0.756508 0.83904,2.159488 v 2.682166 q 0,0.26134 0.0825,0.371377 0.0963,0.110038 0.31636,0.123792 v 1.210414 q -0.20632,0.04126 -0.37137,0.05502 -0.16506,0.01376 -0.2751,0.01376 -0.48141,0 -0.729,-0.23383 -0.24758,-0.23383 -0.28885,-0.550188 l -0.0413,-0.412641 q -0.46766,0.605206 -1.19666,0.935319 -0.729,0.330113 -1.47175,0.330113 -0.71525,0 -1.27919,-0.288849 -0.56394,-0.302603 -0.8803,-0.811527 -0.316358,-0.508924 -0.316358,-1.14164 z m 4.580318,0.44015 q 0.16505,-0.178811 0.26134,-0.357622 0.0963,-0.178811 0.0963,-0.316358 v -0.825282 q -0.38513,-0.151302 -0.81153,-0.220075 -0.42639,-0.08253 -0.83903,-0.08253 -0.82529,0 -1.34797,0.330113 -0.50892,0.330112 -0.50892,0.90781 0,0.316358 0.16506,0.605206 0.17881,0.288849 0.49517,0.46766 0.33011,0.178811 0.81152,0.178811 0.49517,0 0.94908,-0.192565 0.4539,-0.192566 0.729,-0.49517 z"
         style="font-weight:600;font-family:Raleway;-inkscape-font-specification:'Raleway Semi-Bold'"
         id="path8866" />
    </g>
    <rect
       style="fill:#baddff;fill-opacity:0.533333;stroke-width:0.3;stroke-opacity:0.266667;stop-color:#000000"
       id="rect1096"
       width="14.207875"
       height="14.207875"
       x="41.754452"
       y="28.931921"
       ry="1.456728" />
    <rect
       style="fill:#baddff;fill-opacity:0.533333;stroke-width:0.3;stroke-opacity:0.266667;stop-color:#000000"
       id="rect1096-7"
       width="14.207875"
       height="14.207875"
       x="44.929455"
       y="32.106926"
       ry="1.456728" />
  </g>
</svg>
